<?xml version="1.0" encoding="UTF-8"?>
<svg width="48px" height="52px" viewBox="0 0 48 52" version="1.1" xmlns="http://www.w3.org/2000/svg" xmlns:xlink="http://www.w3.org/1999/xlink">
    <!-- Generator: Sketch 48.1 (47250) - http://www.bohemiancoding.com/sketch -->
    <title>HtmlIcon</title>
    <desc>Created with Sketch.</desc>
    <defs></defs>
    <g id="Desktop-HD" stroke="none" stroke-width="1" fill="none" fill-rule="evenodd" transform="translate(-816.000000, -257.000000)">
        <g id="Group-5" transform="translate(534.000000, 257.000000)">
            <g id="Group-3" transform="translate(230.000000, 0.000000)">
                <g id="HtmlIcon" transform="translate(52.000000, 0.000000)">
                    <path d="M8,4 L40,4 C44.418278,4 48,7.581722 48,12 L48,44 C48,48.418278 44.418278,52 40,52 L18,52 L8,52 C3.581722,52 -1.23527384e-15,48.418278 -1.77635684e-15,44 L0,12 C-5.41083001e-16,7.581722 3.581722,4 8,4 Z" id="Rectangle-Copy-3" fill="#CE970D"></path>
                    <rect id="Rectangle" fill="#EFBB39" x="0" y="0" width="48" height="48" rx="8"></rect>
                    <g id="HTML5_logo_and_wordmark" transform="translate(15.000000, 11.000000)" fill-rule="nonzero">
                        <path d="M1.89010989,0 L3.15384615,0 L3.15384615,1.25274725 L4.31868132,1.25274725 L4.31868132,0 L5.58241758,0 L5.58241758,3.79120879 L4.31868132,3.79120879 L4.31868132,2.52747253 L3.16483516,2.52747253 L3.16483516,3.79120879 L1.89010989,3.79120879 M7.25274725,1.26373626 L6.13736264,1.26373626 L6.13736264,0 L9.63736264,0 L9.63736264,1.26373626 L8.51648352,1.26373626 L8.51648352,3.79120879 L7.25274725,3.79120879 M10.1923077,0 L11.5164835,0 L12.3296703,1.33516484 L13.1428571,0 L14.467033,0 L14.467033,3.79120879 L13.2032967,3.79120879 L13.2032967,1.91208791 L12.3186813,3.27472527 L11.4340659,1.91208791 L11.4340659,3.79120879 L10.1923077,3.79120879 M15.0934066,0 L16.3571429,0 L16.3571429,2.53846154 L18.1483516,2.53846154 L18.1483516,3.79120879 L15.0934066,3.79120879" id="Shape" fill="#000000"></path>
                        <polyline id="Shape" fill="#E44D26" points="1.84615385 25.8791209 0.032967033 5.52747253 19.967033 5.52747253 18.1538462 25.8681319 9.98351648 28.1318681"></polyline>
                        <polyline id="Shape" fill="#F16529" points="10 26.4010989 10 7.1978022 18.1483516 7.1978022 16.5934066 24.5604396"></polyline>
                        <path d="M3.73626374,9.68681319 L10,9.68681319 L10,12.1813187 L6.47252747,12.1813187 L6.7032967,14.7362637 L10,14.7362637 L10,17.2252747 L4.41758242,17.2252747 M4.52747253,18.478022 L7.03296703,18.478022 L7.20879121,20.4725275 L10,21.2197802 L10,23.8241758 L4.87912088,22.3956044" id="Shape" fill="#EBEBEB"></path>
                        <path d="M16.2417582,9.68681319 L9.98901099,9.68681319 L9.98901099,12.1813187 L16.010989,12.1813187 M15.7857143,14.7362637 L9.98901099,14.7362637 L9.98901099,17.2307692 L13.0659341,17.2307692 L12.7747253,20.4725275 L9.98901099,21.2197802 L9.98901099,23.8131868 L15.0989011,22.3956044" id="Shape" fill="#FFFFFF"></path>
                    </g>
                </g>
            </g>
        </g>
    </g>
</svg>