<!-- Generator: Adobe Illustrator 19.0.0, SVG Export Plug-In  -->
<svg version="1.1"
	 xmlns="http://www.w3.org/2000/svg" xmlns:xlink="http://www.w3.org/1999/xlink" xmlns:a="http://ns.adobe.com/AdobeSVGViewerExtensions/3.0/"
	 x="0px" y="0px" width="65.1px" height="40.7px" viewBox="0 0 65.1 40.7" style="enable-background:new 0 0 65.1 40.7;"
	 xml:space="preserve">
<style type="text/css">
	.st0{fill:#333333;}
</style>
<defs>
</defs>
<g id="XMLID_41_">
	<g id="XMLID_42_">
		<g id="XMLID_66_">
			<g id="XMLID_70_">
				<path id="XMLID_71_" class="st0" d="M38.2,34.4l-2,2.1l-1.9,1.9c-0.3-0.4-0.6-0.7-1-1.2c-0.4-0.4-0.7-0.8-1.1-1.3
					c-0.7-0.8-1.5-1.4-2.4-1.9v-0.3c0.3-0.3,0.5-0.6,0.7-0.9c0.5-0.9,0.7-1.9,0.7-3V8.3c0-1.2-0.5-2.4-1.5-3.7l0.1-0.3
					c0.5,0.1,0.9,0.3,1.4,0.6c0.4,0.3,0.9,0.8,1.4,1.5l0.2,0.1c0.6-0.8,1-1.4,1.3-1.8c0.8-0.8,1.8-1.2,3-1.2l0.1,0.2
					c-0.8,0.4-1.3,1.2-1.7,2.4c-0.4,1.2-0.5,2.4-0.5,3.7v22.6l1.6,1.9l0.9-0.8L38.2,34.4z"/>
			</g>
			<g id="XMLID_67_">
				<path id="XMLID_68_" class="st0" d="M26.6,6.5l2-2.1l1.9-1.9c0.3,0.4,0.6,0.7,1,1.2c0.4,0.4,0.7,0.8,1.1,1.3
					C33.2,5.7,34,6.3,35,6.8v0.3c-0.3,0.3-0.5,0.6-0.7,0.9c-0.5,0.9-0.7,1.9-0.7,3v21.7c0,1.2,0.5,2.4,1.5,3.7l-0.1,0.3
					c-0.5-0.1-0.9-0.3-1.4-0.6c-0.4-0.3-0.9-0.8-1.4-1.5l-0.2-0.1c-0.6,0.8-1,1.4-1.3,1.8c-0.8,0.8-1.8,1.2-3,1.2l-0.1-0.2
					c0.8-0.4,1.3-1.2,1.7-2.4c0.4-1.2,0.5-2.4,0.5-3.7V8.5l-1.6-1.9l-0.9,0.8L26.6,6.5z"/>
			</g>
		</g>
		<g id="XMLID_60_">
			<g id="XMLID_63_">
				<path id="XMLID_64_" class="st0" d="M28.2,29.4l-4.9,4.3c-0.6-0.3-1.1-0.6-1.5-1c-0.4-0.4-0.7-0.9-1-1.4c-0.5-1-0.7-2.4-0.7-4.4
					V12.9L18.4,11l4.1-3.6l4.3,3.6l-1.8,2v14.8c0,0.4,0.1,0.7,0.4,1.1c0.3,0.3,0.6,0.5,1.1,0.5l0.9-0.7L28.2,29.4z"/>
			</g>
			
				<rect id="XMLID_62_" x="21.5" y="4.8" transform="matrix(0.7071 -0.7071 0.7071 0.7071 2.53 17.5765)" class="st0" width="1.9" height="1.9"/>
			
				<rect id="XMLID_61_" x="22.4" y="34.5" transform="matrix(0.7071 -0.7071 0.7071 0.7071 -18.2133 26.8433)" class="st0" width="1.9" height="1.9"/>
		</g>
		<g id="XMLID_53_">
			<path id="XMLID_57_" class="st0" d="M17.9,9.9c-0.3,0.4-0.5,0.9-0.7,1.5c-0.2,0.6-0.3,1.4-0.3,2.2v16.6c-0.7,0.2-1.5,0.5-2.3,1
				c-0.9,0.5-1.6,0.8-2.1,1.1c-0.5,0.3-1,0.6-1.7,1.1c-0.6,0.5-1.2,0.9-1.6,1.3c-1.5-1.2-2.9-2.1-4.4-2.8c-0.6-0.3-1.3-0.6-2.1-0.8
				c-0.8-0.2-1.7-0.5-2.6-0.7c0.1-0.1,0.1-0.2,0-0.3c0,0-0.1-0.1-0.1-0.1c0.3-0.4,0.5-0.7,0.7-1c0.5-0.9,0.7-1.9,0.7-3.1V12.8
				c0.3-0.1,0.8-0.2,1.3-0.3c0.5-0.1,1-0.2,1.3-0.4c0.4-0.2,0.8-0.4,1.2-0.6c0.5-0.3,0.8-0.6,1-0.9l-6.1-5L0,0l0.5,0l14.9,11.8
				c0.1-0.2,0.2-0.5,0.3-0.8c0.2-0.3,0.3-0.5,0.4-0.6l1.1-1L17.9,9.9z M12.1,30.3V14.9l-4.5-3.3L6,13.1v14.7l3.2,1.3L12.1,30.3z"/>
		</g>
		<g id="XMLID_47_">
			<g id="XMLID_50_">
				<path id="XMLID_51_" class="st0" d="M37,11.3L41.9,7c0.6,0.3,1.1,0.6,1.5,1c0.4,0.4,0.7,0.9,1,1.4c0.5,1,0.7,2.4,0.7,4.4v14.1
					l1.6,1.8l-4.1,3.6l-4.3-3.6l1.8-2V12.9c0-0.4-0.1-0.7-0.4-1.1c-0.3-0.3-0.6-0.5-1.1-0.5L37.8,12L37,11.3z"/>
			</g>
			
				<rect id="XMLID_49_" x="41.7" y="34" transform="matrix(-0.7071 0.7071 -0.7071 -0.7071 97.5041 29.5593)" class="st0" width="1.9" height="1.9"/>
			
				<rect id="XMLID_48_" x="40.9" y="4.4" transform="matrix(-0.7071 0.7071 -0.7071 -0.7071 75.1321 -20.5195)" class="st0" width="1.9" height="1.9"/>
		</g>
		<g id="XMLID_43_">
			<path id="XMLID_44_" class="st0" d="M47.2,30.8c0.3-0.4,0.5-0.9,0.7-1.5c0.2-0.6,0.3-1.4,0.3-2.2V10.4c0.7-0.2,1.5-0.5,2.3-1
				c0.9-0.5,1.6-0.8,2.1-1.1c0.5-0.3,1-0.6,1.7-1.1c0.6-0.5,1.2-0.9,1.6-1.3c1.5,1.2,2.9,2.1,4.4,2.8c0.6,0.3,1.3,0.6,2.1,0.8
				c0.8,0.2,1.7,0.5,2.6,0.7c-0.1,0.1-0.1,0.2,0,0.3c0,0,0.1,0.1,0.1,0.1c-0.3,0.4-0.5,0.7-0.7,1c-0.5,0.9-0.7,1.9-0.7,3.1v13.2
				c-0.3,0.1-0.8,0.2-1.3,0.3c-0.5,0.1-1,0.2-1.3,0.4c-0.4,0.2-0.8,0.4-1.2,0.6c-0.5,0.3-0.8,0.6-1,0.9l6.1,5l0,5.5l-0.5,0
				L49.7,28.9c-0.1,0.2-0.2,0.5-0.3,0.8c-0.2,0.3-0.3,0.5-0.4,0.6l-1.1,1L47.2,30.8z M53,10.4v15.5l4.5,3.3l1.6-1.5V12.9l-3.2-1.3
				L53,10.4z"/>
		</g>
	</g>
</g>
</svg>
