<?xml version="1.0" encoding="UTF-8"?>
<svg width="48px" height="52px" viewBox="0 0 48 52" version="1.1" xmlns="http://www.w3.org/2000/svg" xmlns:xlink="http://www.w3.org/1999/xlink">
    <!-- Generator: Sketch 48.1 (47250) - http://www.bohemiancoding.com/sketch -->
    <title>ReactIcon</title>
    <desc>Created with Sketch.</desc>
    <defs></defs>
    <g id="Desktop-HD" stroke="none" stroke-width="1" fill="none" fill-rule="evenodd" transform="translate(-764.000000, -257.000000)">
        <g id="Group-5" transform="translate(534.000000, 257.000000)">
            <g id="Group-3" transform="translate(230.000000, 0.000000)">
                <g id="ReactIcon">
                    <rect id="Rectangle-Copy-3" fill="#01042D" x="0" y="4" width="48" height="48" rx="8"></rect>
                    <rect id="Rectangle" fill="#060B56" x="0" y="0" width="48" height="48" rx="8"></rect>
                    <g id="React-icon" transform="translate(12.000000, 14.000000)" fill="#61DAFB" fill-rule="nonzero">
                        <path d="M23.9658537,10.6585366 C23.9658537,9.07317073 21.9804878,7.57073171 18.9365854,6.63902439 C19.6390244,3.53658537 19.3268293,1.06829268 17.9512195,0.27804878 C17.6341463,0.0926829268 17.2634146,0.00487804878 16.8585366,0.00487804878 L16.8585366,1.09268293 C17.0829268,1.09268293 17.2634146,1.13658537 17.4146341,1.2195122 C18.0780488,1.6 18.3658537,3.04878049 18.1414634,4.91219512 C18.0878049,5.37073171 18,5.85365854 17.8926829,6.34634146 C16.9365854,6.11219512 15.8926829,5.93170732 14.795122,5.81463415 C14.1365854,4.91219512 13.4536585,4.09268293 12.7658537,3.37560976 C14.3560976,1.89756098 15.8487805,1.08780488 16.8634146,1.08780488 L16.8634146,0 C16.8634146,0 16.8634146,0 16.8634146,0 C15.5219512,0 13.7658537,0.956097561 11.9902439,2.61463415 C10.2146341,0.965853659 8.45853659,0.0195121951 7.11707317,0.0195121951 L7.11707317,1.10731707 C8.12682927,1.10731707 9.62439024,1.91219512 11.2146341,3.3804878 C10.5317073,4.09756098 9.84878049,4.91219512 9.2,5.81463415 C8.09756098,5.93170732 7.05365854,6.11219512 6.09756098,6.35121951 C5.98536585,5.86341463 5.90243902,5.3902439 5.84390244,4.93658537 C5.61463415,3.07317073 5.89756098,1.62439024 6.55609756,1.23902439 C6.70243902,1.15121951 6.89268293,1.11219512 7.11707317,1.11219512 L7.11707317,0.0243902439 C7.11707317,0.0243902439 7.11707317,0.0243902439 7.11707317,0.0243902439 C6.70731707,0.0243902439 6.33658537,0.112195122 6.01463415,0.297560976 C4.64390244,1.08780488 4.33658537,3.55121951 5.04390244,6.64390244 C2.0097561,7.5804878 0.0341463415,9.07804878 0.0341463415,10.6585366 C0.0341463415,12.2439024 2.0195122,13.7463415 5.06341463,14.6780488 C4.36097561,17.7804878 4.67317073,20.2487805 6.04878049,21.0390244 C6.36585366,21.2243902 6.73658537,21.3121951 7.14634146,21.3121951 C8.48780488,21.3121951 10.2439024,20.3560976 12.0195122,18.697561 C13.795122,20.3463415 15.5512195,21.2926829 16.8926829,21.2926829 C17.302439,21.2926829 17.6731707,21.204878 17.995122,21.0195122 C19.3658537,20.2292683 19.6731707,17.7658537 18.9658537,14.6731707 C21.9902439,13.7414634 23.9658537,12.2390244 23.9658537,10.6585366 Z M17.6146341,7.40487805 C17.4341463,8.03414634 17.2097561,8.68292683 16.9560976,9.33170732 C16.7560976,8.94146341 16.5463415,8.55121951 16.3170732,8.16097561 C16.0926829,7.77073171 15.8536585,7.3902439 15.6146341,7.0195122 C16.3073171,7.12195122 16.9756098,7.24878049 17.6146341,7.40487805 Z M15.3804878,12.6 C15,13.2585366 14.6097561,13.8829268 14.204878,14.4634146 C13.4780488,14.5268293 12.7414634,14.5609756 12,14.5609756 C11.2634146,14.5609756 10.5268293,14.5268293 9.80487805,14.4682927 C9.4,13.8878049 9.00487805,13.2682927 8.62439024,12.6146341 C8.25365854,11.9756098 7.91707317,11.3268293 7.6097561,10.6731707 C7.91219512,10.0195122 8.25365854,9.36585366 8.6195122,8.72682927 C9,8.06829268 9.3902439,7.44390244 9.79512195,6.86341463 C10.5219512,6.8 11.2585366,6.76585366 12,6.76585366 C12.7365854,6.76585366 13.4731707,6.8 14.195122,6.85853659 C14.6,7.43902439 14.995122,8.05853659 15.3756098,8.71219512 C15.7463415,9.35121951 16.0829268,10 16.3902439,10.6536585 C16.0829268,11.3073171 15.7463415,11.9609756 15.3804878,12.6 Z M16.9560976,11.9658537 C17.2195122,12.6195122 17.4439024,13.2731707 17.6292683,13.9073171 C16.9902439,14.0634146 16.3170732,14.195122 15.6195122,14.297561 C15.8585366,13.9219512 16.097561,13.5365854 16.3219512,13.1414634 C16.5463415,12.7512195 16.7560976,12.3560976 16.9560976,11.9658537 Z M12.0097561,17.1707317 C11.5560976,16.702439 11.102439,16.1804878 10.6536585,15.6097561 C11.0926829,15.6292683 11.5414634,15.6439024 11.995122,15.6439024 C12.4536585,15.6439024 12.9073171,15.6341463 13.3512195,15.6097561 C12.9121951,16.1804878 12.4585366,16.702439 12.0097561,17.1707317 Z M8.3804878,14.297561 C7.68780488,14.195122 7.0195122,14.0682927 6.3804878,13.9121951 C6.56097561,13.2829268 6.78536585,12.6341463 7.03902439,11.9853659 C7.23902439,12.3756098 7.44878049,12.7658537 7.67804878,13.1560976 C7.90731707,13.5463415 8.14146341,13.9268293 8.3804878,14.297561 Z M11.9853659,4.14634146 C12.4390244,4.61463415 12.8926829,5.13658537 13.3414634,5.70731707 C12.902439,5.68780488 12.4536585,5.67317073 12,5.67317073 C11.5414634,5.67317073 11.0878049,5.68292683 10.6439024,5.70731707 C11.0829268,5.13658537 11.5365854,4.61463415 11.9853659,4.14634146 Z M8.37560976,7.0195122 C8.13658537,7.39512195 7.89756098,7.7804878 7.67317073,8.17560976 C7.44878049,8.56585366 7.23902439,8.95609756 7.03902439,9.34634146 C6.77560976,8.69268293 6.55121951,8.03902439 6.36585366,7.40487805 C7.00487805,7.25365854 7.67804878,7.12195122 8.37560976,7.0195122 Z M3.96097561,13.1268293 C2.23414634,12.3902439 1.11707317,11.4243902 1.11707317,10.6585366 C1.11707317,9.89268293 2.23414634,8.92195122 3.96097561,8.1902439 C4.3804878,8.0097561 4.83902439,7.84878049 5.31219512,7.69756098 C5.5902439,8.65365854 5.95609756,9.64878049 6.4097561,10.6682927 C5.96097561,11.6829268 5.6,12.6731707 5.32682927,13.6243902 C4.84390244,13.4731707 4.38536585,13.3073171 3.96097561,13.1268293 Z M6.58536585,20.097561 C5.92195122,19.7170732 5.63414634,18.2682927 5.85853659,16.404878 C5.91219512,15.9463415 6,15.4634146 6.10731707,14.9707317 C7.06341463,15.204878 8.10731707,15.3853659 9.20487805,15.502439 C9.86341463,16.404878 10.5463415,17.2243902 11.2341463,17.9414634 C9.64390244,19.4195122 8.15121951,20.2292683 7.13658537,20.2292683 C6.91707317,20.2243902 6.73170732,20.1804878 6.58536585,20.097561 Z M18.1560976,16.3804878 C18.3853659,18.2439024 18.102439,19.6926829 17.4439024,20.0780488 C17.297561,20.1658537 17.1073171,20.204878 16.8829268,20.204878 C15.8731707,20.204878 14.3756098,19.4 12.7853659,17.9317073 C13.4682927,17.2146341 14.1512195,16.4 14.8,15.497561 C15.902439,15.3804878 16.9463415,15.2 17.902439,14.9609756 C18.0146341,15.4536585 18.102439,15.9268293 18.1560976,16.3804878 Z M20.0341463,13.1268293 C19.6146341,13.3073171 19.1560976,13.4682927 18.6829268,13.6195122 C18.404878,12.6634146 18.0390244,11.6682927 17.5853659,10.6487805 C18.0341463,9.63414634 18.395122,8.64390244 18.6682927,7.69268293 C19.1512195,7.84390244 19.6097561,8.0097561 20.0390244,8.1902439 C21.7658537,8.92682927 22.8829268,9.89268293 22.8829268,10.6585366 C22.8780488,11.4243902 21.7609756,12.395122 20.0341463,13.1268293 Z" id="Shape"></path>
                        <circle id="Oval" cx="11.995122" cy="10.6585366" r="2.22926829"></circle>
                    </g>
                </g>
            </g>
        </g>
    </g>
</svg>