<?xml version="1.0" encoding="UTF-8"?>
<svg width="48px" height="52px" viewBox="0 0 48 52" version="1.1" xmlns="http://www.w3.org/2000/svg" xmlns:xlink="http://www.w3.org/1999/xlink">
    <!-- Generator: Sketch 48.1 (47250) - http://www.bohemiancoding.com/sketch -->
    <title>CssIcon</title>
    <desc>Created with Sketch.</desc>
    <defs></defs>
    <g id="Desktop-HD" stroke="none" stroke-width="1" fill="none" fill-rule="evenodd" transform="translate(-868.000000, -257.000000)">
        <g id="Group-5" transform="translate(534.000000, 257.000000)">
            <g id="Group-3" transform="translate(230.000000, 0.000000)">
                <g id="CssIcon" transform="translate(104.000000, 0.000000)">
                    <rect id="Rectangle-Copy-3" fill="#2FA4D6" x="0" y="4" width="48" height="48" rx="8"></rect>
                    <rect id="Rectangle" fill="#31B7F0" x="0" y="0" width="48" height="48" rx="8"></rect>
                    <g id="CSS.3" transform="translate(15.000000, 10.000000)" fill-rule="nonzero">
                        <g id="#000000ff" transform="translate(3.976608, 0.000000)" fill="#000000">
                            <path d="M0.0216374269,0.0561403509 C1.2497076,0.0409356725 2.47777778,0.0514619883 3.70584795,0.050877193 C3.70877193,0.435087719 3.71461988,0.819298246 3.7005848,1.20350877 C2.8497076,1.19766082 1.9994152,1.20350877 1.14912281,1.20877193 C1.14327485,1.76666667 1.13216374,2.3245614 1.1374269,2.88245614 C1.99122807,2.8877193 2.84561404,2.89590643 3.6994152,2.89239766 C3.70935673,3.20818713 3.70584795,3.5251462 3.69649123,3.84152047 C2.47192982,3.83333333 1.24736842,3.83684211 0.0228070175,3.8380117 C0.0257309942,2.57719298 0.0280701754,1.31695906 0.0216374269,0.0561403509 Z" id="Shape"></path>
                            <path d="M4.14385965,0.0520467836 C5.3871345,0.0497076023 6.63040936,0.0421052632 7.87426901,0.0561403509 C7.86959064,0.419298246 7.87309942,0.781871345 7.87309942,1.14502924 C6.96842105,1.14210526 6.06315789,1.14619883 5.15847953,1.15672515 C5.15964912,1.2994152 5.15964912,1.44210526 5.15847953,1.58479532 C6.0619883,1.5994152 6.96491228,1.60116959 7.86783626,1.60643275 C7.87134503,2.35087719 7.86959064,3.09473684 7.87426901,3.83859649 C6.63040936,3.83625731 5.38654971,3.8374269 4.14269006,3.84327485 C4.13625731,3.54269006 4.13567251,3.24269006 4.14444444,2.94210526 C5.00643275,2.94444444 5.86900585,2.94561404 6.73099415,2.93859649 C6.73625731,2.74502924 6.73859649,2.55087719 6.7380117,2.35730994 C5.87192982,2.35730994 5.00526316,2.36023392 4.13918129,2.35438596 C4.13918129,1.5871345 4.13918129,0.819298246 4.14385965,0.0520467836 Z" id="Shape"></path>
                            <path d="M8.29064327,0.0584795322 C9.53157895,0.0584795322 10.7730994,0.0584795322 12.0140351,0.0584795322 C12.0192982,0.423391813 12.0245614,0.788304094 12.0128655,1.15263158 C11.1040936,1.15204678 10.1953216,1.15730994 9.28654971,1.15906433 C9.28888889,1.30818713 9.29239766,1.45730994 9.3,1.60643275 C10.2035088,1.60233918 11.1070175,1.61345029 12.0099415,1.62280702 C12.0181287,2.36374269 12.0239766,3.10467836 12.0134503,3.84561404 C10.7695906,3.84210526 9.52573099,3.84210526 8.28187135,3.84795322 C8.27426901,3.54853801 8.27192982,3.24795322 8.28479532,2.94853801 C9.14502924,2.95497076 10.005848,2.95380117 10.8666667,2.94561404 C10.8690058,2.75146199 10.8730994,2.55730994 10.871345,2.36374269 C10.0076023,2.37192982 9.14327485,2.36725146 8.27894737,2.36432749 C8.27894737,1.59590643 8.28479532,0.826900585 8.29064327,0.0584795322 Z" id="Shape"></path>
                        </g>
                        <g id="#0170baff" transform="translate(0.000000, 5.380117)" fill="#0170BA">
                            <path d="M0,0.0269005848 C6.6619883,0.0263157895 13.3233918,0.0257309942 19.9853801,0.0269005848 C19.6187135,4.17017544 19.2578947,8.31345029 18.8760234,12.4555556 C18.6491228,15.102924 18.4152047,17.7502924 18.1684211,20.3959064 C16.7467836,20.7725146 15.3391813,21.2017544 13.9181287,21.580117 C12.6128655,21.9631579 11.297076,22.3099415 9.99122807,22.6900585 L9.95263158,22.6900585 C8.70994152,22.3204678 7.45497076,21.9953216 6.2122807,21.625731 C4.74561404,21.2304094 3.29181287,20.7894737 1.8245614,20.3959064 C1.63333333,18.4128655 1.46081871,16.428655 1.29064327,14.4444444 C0.969590643,10.7783626 0.620467836,7.11461988 0.311695906,3.44795322 C0.204678363,2.34444444 0.128070175,1.2374269 0,0.13625731 L0,0.0269005848 Z M10.0239766,1.66140351 C10.0099415,2.45730994 10.0345029,3.25380117 10.0099415,4.04912281 C7.7245614,4.04093567 5.43859649,4.04736842 3.15321637,4.0497076 C3.19239766,4.82222222 3.29590643,5.58947368 3.40233918,6.35555556 C5.52865497,6.43450292 7.65789474,6.35263158 9.78421053,6.41637427 C7.92397661,7.25087719 6.04093567,8.03684211 4.17251462,8.85380117 C4.0122807,8.9251462 3.84093567,8.97894737 3.69766082,9.08304094 C3.71345029,9.93157895 3.8502924,10.7754386 3.91052632,11.6222222 C5.04385965,11.6181287 6.17660819,11.6 7.30994152,11.5982456 C8.21812865,11.5935673 9.12690058,11.6116959 10.0350877,11.5918129 C9.99181287,12.9871345 10.048538,14.3842105 10.005848,15.7795322 C9.39473684,15.6888889 8.79122807,15.5526316 8.18245614,15.4444444 C7.70233918,15.3397661 7.21052632,15.2853801 6.7374269,15.1479532 C6.67017544,14.4783626 6.62339181,13.8064327 6.56374269,13.1362573 C6.42690058,13.094152 6.28187135,13.0982456 6.14035088,13.0959064 C5.45380117,13.1 4.76666667,13.0935673 4.07953216,13.1040936 C4.14678363,14.3923977 4.2625731,15.6789474 4.45964912,16.9549708 C5.13684211,17.1315789 5.81520468,17.3046784 6.49122807,17.4888889 C7.52690058,17.7707602 8.5754386,18.0052632 9.6128655,18.2824561 C9.73625731,18.3087719 9.86081871,18.354386 9.98888889,18.3438596 C10.0578947,19.1912281 10.0046784,20.0438596 10.0175439,20.8935673 C10.2567251,20.8549708 10.4918129,20.7959064 10.722807,20.7245614 C12.6865497,20.1912281 14.6479532,19.6479532 16.6105263,19.1093567 C16.7081871,18.3374269 16.7538012,17.5602339 16.8309942,16.7865497 C17.0350877,14.4345029 17.2409357,12.0824561 17.4549708,9.73099415 C17.705848,7.04093567 17.922807,4.34795322 18.1754386,1.65789474 C15.4578947,1.66023392 12.7409357,1.65263158 10.0239766,1.66140351 Z" id="Shape"></path>
                        </g>
                        <g id="#29a9dfff" transform="translate(9.941520, 7.017544)" fill="#29A9DF">
                            <path d="M0.0824561404,0.0239766082 C2.7994152,0.0152046784 5.51637427,0.0228070175 8.23391813,0.0204678363 C7.98128655,2.71052632 7.76432749,5.40350877 7.51345029,8.09356725 C7.2994152,10.4450292 7.09356725,12.797076 6.88947368,15.1491228 C6.8122807,15.922807 6.76666667,16.7 6.66900585,17.4719298 C4.70643275,18.0105263 2.74502924,18.5538012 0.78128655,19.0871345 C0.550292398,19.1584795 0.315204678,19.2175439 0.0760233918,19.2561404 C0.0631578947,18.4064327 0.116374269,17.5538012 0.0473684211,16.7064327 C0.0649122807,16.702924 0.100584795,16.6959064 0.118128655,16.6923977 C1.94444444,16.2339181 3.75847953,15.7292398 5.58070175,15.254386 C5.81111111,12.6695906 6.06666667,10.0859649 6.22865497,7.49590643 C4.67894737,7.50409357 3.12865497,7.4994152 1.57894737,7.50584795 C1.35321637,7.50701754 1.12748538,7.50584795 0.902923977,7.48947368 C1.73684211,7.06023392 2.61403509,6.71988304 3.47017544,6.33684211 C4.29181287,5.96432749 5.12339181,5.61520468 5.94795322,5.2497076 C6.10701754,5.17660819 6.27660819,5.11578947 6.41637427,5.00701754 C6.47134503,4.80526316 6.46842105,4.59415205 6.49005848,4.3877193 C6.5374269,3.73274854 6.62163743,3.08128655 6.65321637,2.42573099 C4.45847953,2.40818713 2.26374269,2.42339181 0.0684210526,2.41169591 C0.0929824561,1.61637427 0.0684210526,0.819883041 0.0824561404,0.0239766082 Z" id="Shape"></path>
                            <path d="M0.0935672515,9.95438596 C1.15321637,9.93625731 2.21345029,9.96491228 3.27368421,9.95789474 C3.21461988,11.0415205 3.1245614,12.1233918 3.06842105,13.2070175 C2.41871345,13.4192982 1.75906433,13.5988304 1.10409357,13.7953216 C0.75497076,13.9017544 0.396491228,13.9859649 0.0643274854,14.1421053 C0.107017544,12.7467836 0.0502923977,11.3497076 0.0935672515,9.95438596 Z" id="Shape"></path>
                        </g>
                        <g id="#cfcfcfff" transform="translate(3.099415, 9.415205)" fill="#CFCFCF">
                            <path d="M0.0538011696,0.014619883 C2.33918129,0.0122807018 4.6251462,0.00584795322 6.91052632,0.0140350877 C6.94035088,2.52865497 6.90292398,5.04327485 6.93567251,7.55672515 C6.02748538,7.57660819 5.11871345,7.55847953 4.21052632,7.56315789 C3.07719298,7.56491228 1.94444444,7.58304094 0.811111111,7.5871345 C0.750877193,6.74035088 0.614035088,5.89649123 0.598245614,5.04795322 C0.741520468,4.94385965 0.912865497,4.89005848 1.07309942,4.81871345 C2.94152047,4.00175439 4.8245614,3.21578947 6.68479532,2.38128655 C4.55847953,2.31754386 2.42923977,2.3994152 0.302923977,2.32046784 C0.196491228,1.55438596 0.0929824561,0.787134503 0.0538011696,0.014619883 Z" id="Shape"></path>
                            <path d="M0.980116959,9.06900585 C1.66725146,9.05847953 2.35438596,9.06491228 3.04093567,9.06081871 C3.18245614,9.06315789 3.32748538,9.05906433 3.46432749,9.10116959 C3.52397661,9.77134503 3.57076023,10.4432749 3.6380117,11.1128655 C4.11111111,11.2502924 4.60292398,11.3046784 5.08304094,11.4093567 C5.69181287,11.5175439 6.29532164,11.6538012 6.90643275,11.7444444 C6.96491228,12.5935673 6.8625731,13.448538 6.96023392,14.2947368 C6.94269006,14.2982456 6.90701754,14.3052632 6.88947368,14.3087719 C6.76140351,14.3192982 6.63684211,14.2736842 6.51345029,14.2473684 C5.47602339,13.9701754 4.42748538,13.7356725 3.39181287,13.4538012 C2.71578947,13.2695906 2.0374269,13.0964912 1.36023392,12.919883 C1.16315789,11.6438596 1.04736842,10.3573099 0.980116959,9.06900585 Z" id="Shape"></path>
                        </g>
                        <g id="#ffffffff" transform="translate(10.000000, 9.415205)" fill="#FFFFFF">
                            <path d="M0.00994152047,0.0140350877 C2.20526316,0.0257309942 4.4,0.0105263158 6.59473684,0.0280701754 C6.56315789,0.683625731 6.47894737,1.33508772 6.43157895,1.99005848 C6.40994152,2.19649123 6.4128655,2.40760234 6.35789474,2.60935673 C6.21812865,2.71812865 6.04853801,2.77894737 5.88947368,2.85204678 C5.06491228,3.21754386 4.23333333,3.56666667 3.41169591,3.93918129 C2.55555556,4.32222222 1.67836257,4.6625731 0.844444444,5.09181287 C1.06900585,5.10818713 1.29473684,5.10935673 1.52046784,5.10818713 C3.07017544,5.10175439 4.62046784,5.10643275 6.17017544,5.09824561 C6.00818713,7.68830409 5.75263158,10.2719298 5.52222222,12.8567251 C3.7,13.3315789 1.88596491,13.8362573 0.0596491228,14.2947368 C-0.0380116959,13.448538 0.0643274854,12.5935673 0.00584795322,11.7444444 C0.338011696,11.5883041 0.696491228,11.5040936 1.04561404,11.3976608 C1.7005848,11.2011696 2.36023392,11.0216374 3.00994152,10.8093567 C3.06608187,9.72573099 3.15614035,8.64385965 3.21520468,7.56023392 C2.15497076,7.56725146 1.09473684,7.53859649 0.0350877193,7.55672515 C0.00233918129,5.04327485 0.0397660819,2.52865497 0.00994152047,0.0140350877 Z" id="Shape"></path>
                        </g>
                    </g>
                </g>
            </g>
        </g>
    </g>
</svg>